<svg width="70" height="68" viewBox="0 0 70 68" fill="none" xmlns="http://www.w3.org/2000/svg">
<g id="Star 12" filter="url(#filter0_d_13051_3133)">
<path d="M34.1033 20.817C34.4701 20.0737 35.5299 20.0737 35.8967 20.817L39.4696 28.0564C39.6153 28.3516 39.8968 28.5561 40.2225 28.6035L48.2117 29.7644C49.032 29.8835 49.3595 30.8915 48.766 31.4701L42.9849 37.1052C42.7492 37.3349 42.6417 37.6659 42.6973 37.9903L44.062 45.9472C44.2022 46.7641 43.3447 47.3871 42.6111 47.0014L35.4653 43.2446C35.174 43.0915 34.826 43.0915 34.5347 43.2446L27.3889 47.0014C26.6553 47.3871 25.7978 46.7641 25.938 45.9472L27.3027 37.9903C27.3583 37.6659 27.2508 37.3349 27.0151 37.1052L21.234 31.4701C20.6405 30.8915 20.968 29.8835 21.7883 29.7644L29.7775 28.6035C30.1032 28.5561 30.3847 28.3516 30.5304 28.0564L34.1033 20.817Z" fill="#FBA457"/>
</g>
<defs>
<filter id="filter0_d_13051_3133" x="0.929688" y="0.259552" width="68.1406" height="66.8589" filterUnits="userSpaceOnUse" color-interpolation-filters="sRGB">
<feFlood flood-opacity="0" result="BackgroundImageFix"/>
<feColorMatrix in="SourceAlpha" type="matrix" values="0 0 0 0 0 0 0 0 0 0 0 0 0 0 0 0 0 0 127 0" result="hardAlpha"/>
<feOffset/>
<feGaussianBlur stdDeviation="10"/>
<feColorMatrix type="matrix" values="0 0 0 0 1 0 0 0 0 0.740061 0 0 0 0 0.51 0 0 0 0.9 0"/>
<feBlend mode="normal" in2="BackgroundImageFix" result="effect1_dropShadow_13051_3133"/>
<feBlend mode="normal" in="SourceGraphic" in2="effect1_dropShadow_13051_3133" result="shape"/>
</filter>
</defs>
</svg>
